<?xml version="1.0" encoding="UTF-8" standalone="no"?>
<!-- Created with Inkscape (http://www.inkscape.org/) -->

<svg
   width="210mm"
   height="297mm"
   viewBox="0 0 210 297"
   version="1.1"
   id="svg1"
   xml:space="preserve"
   inkscape:version="1.3 (1:1.3+202307231459+0e150ed6c4)"
   sodipodi:docname="CaixaColorimetroLateral2.svg"
   xmlns:inkscape="http://www.inkscape.org/namespaces/inkscape"
   xmlns:sodipodi="http://sodipodi.sourceforge.net/DTD/sodipodi-0.dtd"
   xmlns="http://www.w3.org/2000/svg"
   xmlns:svg="http://www.w3.org/2000/svg"><sodipodi:namedview
     id="namedview1"
     pagecolor="#ffffff"
     bordercolor="#000000"
     borderopacity="0.25"
     inkscape:showpageshadow="2"
     inkscape:pageopacity="0.0"
     inkscape:pagecheckerboard="0"
     inkscape:deskcolor="#d1d1d1"
     inkscape:document-units="mm"
     inkscape:zoom="0.60315297"
     inkscape:cx="739.44758"
     inkscape:cy="605.15328"
     inkscape:window-width="1850"
     inkscape:window-height="1016"
     inkscape:window-x="0"
     inkscape:window-y="0"
     inkscape:window-maximized="1"
     inkscape:current-layer="layer1" /><defs
     id="defs1" /><g
     inkscape:label="Layer 1"
     inkscape:groupmode="layer"
     id="layer1"><path
       id="rect4-7-1-8"
       style="fill:none;stroke:#000000;stroke-width:0.170152"
       d="m 53.261563,237.08508 h 2.829848 v 19.82985 h -2.829848 l -0.219216,-0.0402 6.19e-4,31.77903 H 3.310014 c 0,-9.35308 0.0039,-20.00492 0.0011,-31.28244 l -0.396167,3.8e-4 H 0.085099 v -19.82985 h 2.829848 l 0.372054,0.006 c -0.0027,-10.00061 0.0076,-20.21509 0.0057,-30.61019 l -0.377777,-0.0227 H 0.085076 V 187.0851 h 2.829848 l 0.38667,0.024 c -0.0034,-21.22039 -0.01198,-41.99468 -0.01088,-60.19824 l -0.375782,0.004 H 0.085084 v -19.82985 h 2.829848 l 0.401835,-0.004 c 0.0017,-24.062644 0.0035,-40.051051 0.0049,-40.170177 l -0.406732,0.0038 H 0.085095 V 47.085072 h 2.829848 l 0.326118,-0.0063 0.06892,-8.158008 h 49.732985 v 7.719265 l 0.218601,-0.0117 h 2.829848 v 19.829848 h -2.829848 l -0.218601,0.02469 v 40.153583 l 0.218601,-0.008 h 2.829848 v 19.82984 h -2.829848 l -0.221801,0.003 0.0012,60.1843 0.220597,-0.0172 h 2.829848 v 19.82985 h -2.829848 l -0.220197,0.022 5.96e-4,30.60959 z"
       sodipodi:nodetypes="ccccccccccccccccccccccccccccccccccccccccccccccccccccc" /><path
       id="rect4-7-1-8-4"
       style="fill:none;stroke:#000000;stroke-width:0.170152"
       d="m 113.26164,237.0854 h 2.82985 v 19.82985 h -2.82985 l -0.21921,-0.0402 6.1e-4,31.77903 H 63.310086 c 0,-9.35308 0.004,-20.00492 0.001,-31.28244 l -0.39616,3.8e-4 h -2.82985 v -19.82985 h 2.82985 l 0.37205,0.006 c -0.003,-10.0006 0.008,-20.21509 0.006,-30.61018 l -0.37778,-0.0227 h -2.82985 v -19.82988 h 2.82985 l 0.38667,0.024 c -0.003,-21.22039 -0.012,-41.99468 -0.0109,-60.19824 l -0.37578,0.004 h -2.82985 v -19.82985 h 2.82985 l 0.40184,-0.004 c 0.002,-24.062642 0.004,-40.051049 0.005,-40.170175 l -0.40674,0.0038 h -2.82984 V 47.085384 h 2.82985 l 0.32612,-0.0063 0.0689,-8.158008 H 113.0433 v 7.719265 l 0.21861,-0.0117 h 2.82984 v 19.829848 h -2.82984 l -0.21861,0.02469 v 40.153581 l 0.21861,-0.008 h 2.82984 v 19.82984 h -2.82984 l -0.22181,0.003 0.001,60.1843 0.22059,-0.0172 h 2.82985 v 19.82986 h -2.82985 l -0.2202,0.022 6e-4,30.60959 z"
       sodipodi:nodetypes="ccccccccccccccccccccccccccccccccccccccccccccccccccccc" /></g></svg>
