<?xml version="1.0" encoding="UTF-8" standalone="no"?>
<!-- Created with Inkscape (http://www.inkscape.org/) -->

<svg
   width="20.4cm"
   height="28.5cm"
   viewBox="0 0 204 285"
   version="1.1"
   id="svg1"
   xml:space="preserve"
   inkscape:version="1.3 (1:1.3+202307231459+0e150ed6c4)"
   sodipodi:docname="CaixaColorimetroLateral.svg"
   xmlns:inkscape="http://www.inkscape.org/namespaces/inkscape"
   xmlns:sodipodi="http://sodipodi.sourceforge.net/DTD/sodipodi-0.dtd"
   xmlns="http://www.w3.org/2000/svg"
   xmlns:svg="http://www.w3.org/2000/svg"><sodipodi:namedview
     id="namedview1"
     pagecolor="#ffffff"
     bordercolor="#000000"
     borderopacity="0.25"
     inkscape:showpageshadow="2"
     inkscape:pageopacity="0.0"
     inkscape:pagecheckerboard="0"
     inkscape:deskcolor="#d1d1d1"
     inkscape:document-units="mm"
     inkscape:zoom="2.7481287"
     inkscape:cx="101.15975"
     inkscape:cy="120.08171"
     inkscape:window-width="1850"
     inkscape:window-height="1016"
     inkscape:window-x="0"
     inkscape:window-y="0"
     inkscape:window-maximized="1"
     inkscape:current-layer="layer1"
     showgrid="false" /><defs
     id="defs1" /><g
     inkscape:label="Layer 1"
     inkscape:groupmode="layer"
     id="layer1"><path
       id="rect4-7"
       style="fill:none;stroke:#000000;stroke-width:0.170152"
       d="m 80.190263,54.111295 -0.08842,2.3e-5 -40.267676,0.01056 m -19.679433,0.0052 -20.0224395,0.0053 V 4.1322913 L 20.130289,4.0236077 20.085077,1.085076 h 19.829848 l -3.06e-4,2.9385316 120.180391,-0.011872 -0.01,-2.9266596 h 19.82985 l -0.004,2.9319998 24.221,0.1152168 V 54.132291 l -24.02217,-0.04719 -0.19478,-2.8e-5 v 2.829848 h -19.82985 v -2.829848 l -0.24981,0.0053 -59.88104,0.0157 -0.112023,2.9e-5"
       sodipodi:nodetypes="cccccccccccccccccccccccc" /><path
       id="rect4-0"
       style="fill:none;stroke:#000000;stroke-width:0.170152"
       d="m 39.914925,54.085075 v 2.829848 H 20.085077 v -2.829848"
       sodipodi:nodetypes="cccc" /><path
       id="rect4-2-6"
       style="fill:none;stroke:#000000;stroke-width:0.170152"
       d="M 99.914923,54.085075 H 80.085075"
       sodipodi:nodetypes="cc" /><path
       id="rect4-7-4"
       style="fill:none;stroke:#000000;stroke-width:0.170152"
       d="m 80.143016,123.11175 -0.0884,3e-5 -40.26767,0.0106 m -19.67944,0.005 -20.02243,0.005 V 73.132286 l 19.99799,-0.10868 -0.0452,-2.93853 h 19.82985 l -3.1e-4,2.93853 120.180344,-0.01181 -0.01,-2.92666 h 19.82985 l -0.004,2.932 24.221,0.11521 v 50.000004 l -24.02217,-0.0472 -0.19478,-3e-5 v 2.82985 H 160.0378 v -2.82985 l -0.24981,0.005 -59.881044,0.0157 -0.11202,3e-5"
       sodipodi:nodetypes="cccccccccccccccccccccccc" /><path
       id="rect4-0-9"
       style="fill:none;stroke:#000000;stroke-width:0.170152"
       d="m 39.867686,123.08553 v 2.82985 h -19.82985 v -2.82985"
       sodipodi:nodetypes="cccc" /><path
       id="rect4-2-6-2"
       style="fill:none;stroke:#000000;stroke-width:0.170152"
       d="M 99.867676,123.08553 H 80.037836"
       sodipodi:nodetypes="cc" /></g></svg>
